<svg width="445" height="372" viewBox="0 0 445 372" fill="none" xmlns="http://www.w3.org/2000/svg">
<g clip-path="url(#clip0_395_608)">
<path d="M236.922 51.397C228.957 51.397 222.5 44.9535 222.5 37.0046C222.5 29.0557 228.957 22.6122 236.922 22.6122C244.888 22.6122 251.345 29.0557 251.345 37.0046C251.345 44.9535 244.888 51.397 236.922 51.397Z" fill="#9D0371"/>
<path d="M259.583 28.7804C251.617 28.7804 245.16 22.3369 245.16 14.388C245.16 6.43906 251.622 0 259.583 0C267.544 0 274.005 6.4435 274.005 14.3924C274.005 22.3413 267.548 28.7848 259.583 28.7848" fill="#9D0371"/>
<path d="M282.247 51.397C274.281 51.397 267.824 44.9535 267.824 37.0046C267.824 29.0557 274.281 22.6122 282.247 22.6122C290.212 22.6122 296.669 29.0557 296.669 37.0046C296.669 44.9535 290.212 51.397 282.247 51.397Z" fill="#9D0371"/>
<path d="M267.823 537H251.34V57.5652C251.34 53.0224 255.029 49.341 259.581 49.341C264.134 49.341 267.823 53.0224 267.823 57.5652V537Z" fill="#9D0371"/>
<path d="M14.4224 209.287C6.45695 209.287 0 202.844 0 194.895C0 186.946 6.45695 180.502 14.4224 180.502C22.3879 180.502 28.8449 186.946 28.8449 194.895C28.8449 202.844 22.3879 209.287 14.4224 209.287Z" fill="#9D0371"/>
<path d="M37.0826 186.675C29.1171 186.675 22.6602 180.232 22.6602 172.283C22.6602 164.334 29.1171 157.89 37.0826 157.89C45.0481 157.89 51.5051 164.334 51.5051 172.283C51.5051 180.232 45.0481 186.675 37.0826 186.675Z" fill="#9D0371"/>
<path d="M59.7467 209.287C51.7812 209.287 45.3242 202.844 45.3242 194.895C45.3242 186.946 51.7812 180.502 59.7467 180.502C67.7122 180.502 74.1691 186.946 74.1691 194.895C74.1691 202.844 67.7122 209.287 59.7467 209.287Z" fill="#9D0371"/>
<path d="M45.3226 537H28.8398V215.455C28.8398 210.913 32.5289 207.231 37.0812 207.231C41.6336 207.231 45.3226 210.913 45.3226 215.455V536.996V537Z" fill="#9D0371"/>
<path d="M311.087 189.553C303.121 189.553 296.664 183.109 296.664 175.16C296.664 167.211 303.121 160.768 311.087 160.768C319.052 160.768 325.509 167.211 325.509 175.16C325.509 183.109 319.052 189.553 311.087 189.553Z" fill="#8B92D6"/>
<path d="M333.751 166.94C325.785 166.94 319.328 160.497 319.328 152.548C319.328 144.599 325.785 138.156 333.751 138.156C341.716 138.156 348.173 144.599 348.173 152.548C348.173 160.497 341.716 166.94 333.751 166.94Z" fill="#8B92D6"/>
<path d="M356.415 189.553C348.449 189.553 341.992 183.109 341.992 175.16C341.992 167.211 348.449 160.768 356.415 160.768C364.38 160.768 370.837 167.211 370.837 175.16C370.837 183.109 364.38 189.553 356.415 189.553Z" fill="#8B92D6"/>
<path d="M341.993 537H325.51V195.721C325.51 191.178 329.199 187.497 333.751 187.497C338.304 187.497 341.993 191.178 341.993 195.721V537Z" fill="#8B92D6"/>
<path d="M88.5865 155.013C80.621 155.013 74.1641 148.569 74.1641 140.62C74.1641 132.671 80.621 126.228 88.5865 126.228C96.552 126.228 103.009 132.671 103.009 140.62C103.009 148.569 96.552 155.013 88.5865 155.013Z" fill="#8B92D6"/>
<path d="M111.251 132.4C103.285 132.4 96.8281 125.957 96.8281 118.008C96.8281 110.059 103.285 103.616 111.251 103.616C119.216 103.616 125.673 110.059 125.673 118.008C125.673 125.957 119.216 132.4 111.251 132.4Z" fill="#8B92D6"/>
<path d="M133.915 155.013C125.949 155.013 119.492 148.569 119.492 140.62C119.492 132.671 125.949 126.228 133.915 126.228C141.88 126.228 148.337 132.671 148.337 140.62C148.337 148.569 141.88 155.013 133.915 155.013Z" fill="#8B92D6"/>
<path d="M119.493 537H103.01V161.181C103.01 156.638 106.699 152.957 111.251 152.957C115.804 152.957 119.493 156.638 119.493 161.181V537Z" fill="#8B92D6"/>
<path d="M162.754 243.827C154.789 243.827 148.332 237.384 148.332 229.435C148.332 221.486 154.789 215.042 162.754 215.042C170.72 215.042 177.177 221.486 177.177 229.435C177.177 237.384 170.72 243.827 162.754 243.827Z" fill="#00BAA4"/>
<path d="M185.419 221.215C177.453 221.215 170.996 214.772 170.996 206.823C170.996 198.874 177.453 192.43 185.419 192.43C193.384 192.43 199.841 198.874 199.841 206.823C199.841 214.772 193.384 221.215 185.419 221.215Z" fill="#00BAA4"/>
<path d="M208.079 243.827C200.113 243.827 193.656 237.384 193.656 229.435C193.656 221.486 200.113 215.042 208.079 215.042C216.044 215.042 222.501 221.486 222.501 229.435C222.501 237.384 216.044 243.827 208.079 243.827Z" fill="#00BAA4"/>
<path d="M193.661 537H177.178V249.995C177.178 245.453 180.867 241.771 185.419 241.771C189.971 241.771 193.661 245.453 193.661 249.995V537Z" fill="#00BAA4"/>
<path d="M385.254 110.605C377.289 110.605 370.832 104.162 370.832 96.2129C370.832 88.264 377.289 81.8205 385.254 81.8205C393.22 81.8205 399.677 88.264 399.677 96.2129C399.677 104.162 393.22 110.605 385.254 110.605Z" fill="#00BAA4"/>
<path d="M407.919 87.9931C399.953 87.9931 393.496 81.5496 393.496 73.6007C393.496 65.6518 399.953 59.2083 407.919 59.2083C415.884 59.2083 422.341 65.6518 422.341 73.6007C422.341 81.5496 415.884 87.9931 407.919 87.9931Z" fill="#00BAA4"/>
<path d="M430.577 110.605C422.611 110.605 416.154 104.162 416.154 96.2129C416.154 88.264 422.611 81.8205 430.577 81.8205C438.542 81.8205 444.999 88.264 444.999 96.2129C444.999 104.162 438.542 110.605 430.577 110.605Z" fill="#00BAA4"/>
<path d="M416.155 537H399.672V116.774C399.672 112.231 403.361 108.549 407.913 108.549C412.466 108.549 416.155 112.231 416.155 116.774V537Z" fill="#00BAA4"/>
</g>
<defs>
<clipPath id="clip0_395_608">
<rect width="445" height="537" fill="white"/>
</clipPath>
</defs>
</svg>
