<?xml version="1.0" encoding="UTF-8"?>
<svg xmlns="http://www.w3.org/2000/svg" version="1.1" viewBox="0 0 445 461.2">
  <defs>
    <style>
      .cls-1 {
        fill: #00baa4;
      }

      .cls-2 {
        fill: #9d0371;
      }

      .cls-3 {
        fill: #8b92d6;
      }
    </style>
  </defs>
  <!-- Generator: Adobe Illustrator 28.7.3, SVG Export Plug-In . SVG Version: 1.2.0 Build 164)  -->
  <g>
    <g id="Livello_1">
      <g>
        <path class="cls-1" d="M385.3,215.3c-8,0-14.4-6.4-14.4-14.4s6.5-14.4,14.4-14.4,14.4,6.4,14.4,14.4-6.5,14.4-14.4,14.4Z"/>
        <path class="cls-1" d="M407.9,192.7c-8,0-14.4-6.4-14.4-14.4s6.5-14.4,14.4-14.4,14.4,6.4,14.4,14.4-6.5,14.4-14.4,14.4Z"/>
        <path class="cls-1" d="M430.6,215.3c-8,0-14.4-6.4-14.4-14.4s6.5-14.4,14.4-14.4,14.4,6.4,14.4,14.4-6.5,14.4-14.4,14.4Z"/>
        <path class="cls-1" d="M416.2,641.7h-16.5V221.4c0-4.5,3.7-8.2,8.2-8.2s8.2,3.7,8.2,8.2v420.2Z"/>
      </g>
      <g>
        <path class="cls-3" d="M311.1,294.2c-8,0-14.4-6.4-14.4-14.4s6.5-14.4,14.4-14.4,14.4,6.4,14.4,14.4-6.5,14.4-14.4,14.4Z"/>
        <path class="cls-3" d="M333.8,271.6c-8,0-14.4-6.4-14.4-14.4s6.5-14.4,14.4-14.4,14.4,6.4,14.4,14.4-6.5,14.4-14.4,14.4Z"/>
        <path class="cls-3" d="M356.4,294.2c-8,0-14.4-6.4-14.4-14.4s6.5-14.4,14.4-14.4,14.4,6.4,14.4,14.4-6.5,14.4-14.4,14.4Z"/>
        <path class="cls-3" d="M342,641.7h-16.5v-341.3c0-4.5,3.7-8.2,8.2-8.2s8.2,3.7,8.2,8.2v341.3Z"/>
      </g>
      <g>
        <path class="cls-2" d="M236.9,156.1c-8,0-14.4-6.4-14.4-14.4s6.5-14.4,14.4-14.4,14.4,6.4,14.4,14.4-6.5,14.4-14.4,14.4Z"/>
        <path class="cls-2" d="M259.6,133.5c-8,0-14.4-6.4-14.4-14.4s6.5-14.4,14.4-14.4,14.4,6.4,14.4,14.4-6.5,14.4-14.4,14.4"/>
        <path class="cls-2" d="M282.2,156.1c-8,0-14.4-6.4-14.4-14.4s6.5-14.4,14.4-14.4,14.4,6.4,14.4,14.4-6.5,14.4-14.4,14.4Z"/>
        <path class="cls-2" d="M267.8,641.7h-16.5V162.2c0-4.5,3.7-8.2,8.2-8.2s8.2,3.7,8.2,8.2v479.4Z"/>
      </g>
      <g>
        <path class="cls-1" d="M162.8,348.5c-8,0-14.4-6.4-14.4-14.4s6.5-14.4,14.4-14.4,14.4,6.4,14.4,14.4-6.5,14.4-14.4,14.4Z"/>
        <path class="cls-1" d="M185.4,325.9c-8,0-14.4-6.4-14.4-14.4s6.5-14.4,14.4-14.4,14.4,6.4,14.4,14.4-6.5,14.4-14.4,14.4Z"/>
        <path class="cls-1" d="M208.1,348.5c-8,0-14.4-6.4-14.4-14.4s6.5-14.4,14.4-14.4,14.4,6.4,14.4,14.4-6.5,14.4-14.4,14.4Z"/>
        <path class="cls-1" d="M193.7,641.7h-16.5v-287c0-4.5,3.7-8.2,8.2-8.2s8.2,3.7,8.2,8.2v287Z"/>
      </g>
      <g>
        <path class="cls-3" d="M88.6,259.7c-8,0-14.4-6.4-14.4-14.4s6.5-14.4,14.4-14.4,14.4,6.4,14.4,14.4-6.5,14.4-14.4,14.4Z"/>
        <path class="cls-3" d="M111.3,237.1c-8,0-14.4-6.4-14.4-14.4s6.5-14.4,14.4-14.4,14.4,6.4,14.4,14.4-6.5,14.4-14.4,14.4Z"/>
        <path class="cls-3" d="M133.9,259.7c-8,0-14.4-6.4-14.4-14.4s6.5-14.4,14.4-14.4,14.4,6.4,14.4,14.4-6.5,14.4-14.4,14.4Z"/>
        <path class="cls-3" d="M119.5,641.7h-16.5v-375.8c0-4.5,3.7-8.2,8.2-8.2s8.2,3.7,8.2,8.2v375.8Z"/>
      </g>
      <g>
        <path class="cls-2" d="M14.4,314c-8,0-14.4-6.4-14.4-14.4s6.5-14.4,14.4-14.4,14.4,6.4,14.4,14.4-6.5,14.4-14.4,14.4Z"/>
        <path class="cls-2" d="M37.1,291.3c-8,0-14.4-6.4-14.4-14.4s6.5-14.4,14.4-14.4,14.4,6.4,14.4,14.4-6.5,14.4-14.4,14.4Z"/>
        <path class="cls-2" d="M59.7,314c-8,0-14.4-6.4-14.4-14.4s6.5-14.4,14.4-14.4,14.4,6.4,14.4,14.4-6.5,14.4-14.4,14.4Z"/>
        <path class="cls-2" d="M45.3,641.7h-16.5v-321.5c0-4.5,3.7-8.2,8.2-8.2s8.2,3.7,8.2,8.2v321.5h0Z"/>
      </g>
    </g>
  </g>
</svg>